<svg xmlns="http://www.w3.org/2000/svg"  viewBox="125 123 250 253">
  <rect width="1000" height="1000" />
  <path style="fill: hsl(210, 100%, 90%);" transform="matrix(-0.199547, 0.559293, -0.559293, -0.199547, 511.234863, 108.032425)" d="M 356.371 122.713 L 389.629 122.713 L 412.459 169.641 A 169.029 169.029 0 0 1 437.685 177.837 L 483.738 153.292 L 510.644 172.84 L 501.531 224.224 A 169.029 169.029 0 0 1 517.121 245.682 L 568.807 252.894 L 579.084 284.524 L 541.508 320.738 A 169.029 169.029 0 0 1 541.508 347.262 L 579.084 383.476 L 568.807 415.106 L 517.121 422.318 A 169.029 169.029 0 0 1 501.531 443.776 L 510.644 495.16 L 483.738 514.708 L 437.685 490.163 A 169.029 169.029 0 0 1 412.459 498.359 L 389.629 545.287 L 356.371 545.287 L 333.541 498.359 A 169.029 169.029 0 0 1 308.315 490.163 L 262.262 514.708 L 235.356 495.16 L 244.469 443.776 A 169.029 169.029 0 0 1 228.879 422.318 L 177.193 415.106 L 166.916 383.476 L 204.492 347.262 A 169.029 169.029 0 0 1 204.492 320.738 L 166.916 284.524 L 177.193 252.894 L 228.879 245.682 A 169.029 169.029 0 0 1 244.469 224.224 L 235.356 172.84 L 262.262 153.292 L 308.315 177.837 A 169.029 169.029 0 0 1 333.541 169.641 Z M 373 228.357 A 105.643 105.643 0 0 0 373 439.643 A 105.643 105.643 0 0 0 373 228.357" data-bx-shape="cog 373 334 105.643 169.029 211.287 0.5 10 1@7b259818"></path>
</svg>